# xmcd
#
# Track frame offsets:
#	182
#	13415
#	27487
#	39632
#	52272
#	67697
#	81090
#	95275
#	109647
#	123670
#	138297
#	152195
#	166565
#	182575
#	197852
#	212305
#	227277
#	241290
#
# Disc length: 3402 seconds
#
# Revision: 0
# Processed by: cddbd v1.4PL0 Copyright (c) Steve Scherf et al.
# Submitted via: EasyCDDAExtractor 4.5.2.1
#
DISCID=e60d4812
DTITLE=Memphis Jug Band - Jazz and Blues Collection - CD 50
DYEAR=1900
DGENRE=Blues
TTITLE0=Kansas City Blues
TTITLE1=I'll See You In The Spring, When...
TTITLE2=Sunshine Blues
TTITLE3=I'm Looking For The Bully Of The Town
TTITLE4=Sun Brimmers Blues
TTITLE5=Memphis Boy Blues
TTITLE6=Memphis Jug Band
TTITLE7=Stingy Woman Blues
TTITLE8=Sometimes I Think I Love You
TTITLE9=I Packed My Suitcase, Started For...
TTITLE10=Beale Street Mess Around
TTITLE11=Bob Lee Junior Blues
TTITLE12=Coal Oil Blues
TTITLE13=Evergreen Money Blues
TTITLE14=Papa Long Blues
TTITLE15=State Of Tennessee Blues
TTITLE16=Peaches In The Springtime
TTITLE17=She Stays Out All Night Long
EXTD=
EXTT0=
EXTT1=
EXTT2=
EXTT3=
EXTT4=
EXTT5=
EXTT6=
EXTT7=
EXTT8=
EXTT9=
EXTT10=
EXTT11=
EXTT12=
EXTT13=
EXTT14=
EXTT15=
EXTT16=
EXTT17=
PLAYORDER=
